<?xml version="1.0" standalone="no"?>
<!DOCTYPE svg PUBLIC "-//W3C//DTD SVG 20010904//EN"
 "http://www.w3.org/TR/2001/REC-SVG-20010904/DTD/svg10.dtd">
<svg version="1.0" xmlns="http://www.w3.org/2000/svg"
 width="700.000000pt" height="700.000000pt" viewBox="0 0 700.000000 700.000000"
 preserveAspectRatio="xMidYMid meet">
<metadata>
Created by potrace 1.14, written by Peter Selinger 2001-2017
</metadata>
<g transform="translate(0.000000,700.000000) scale(0.100000,-0.100000)"
fill="#000000" stroke="none">
<path d="M5741 5968 c-5 -13 -19 -50 -31 -83 -36 -98 -429 -1137 -445 -1175
-8 -19 -85 -222 -171 -450 -244 -647 -245 -651 -344 -910 -207 -548 -335 -885
-401 -1060 -38 -102 -73 -194 -78 -205 -5 -11 -21 -54 -36 -95 -15 -41 -43
-113 -60 -160 -18 -47 -74 -195 -125 -330 -51 -135 -112 -296 -136 -358 -24
-62 -44 -117 -44 -122 0 -6 105 -10 284 -10 l285 0 6 23 c4 12 13 36 20 52 7
17 34 86 60 155 26 69 147 391 270 715 123 325 323 853 444 1175 122 322 225
594 230 605 5 11 14 36 21 55 7 19 21 54 31 77 11 24 19 46 19 50 0 5 36 103
81 218 44 116 98 257 119 315 21 58 53 141 70 185 17 44 39 103 49 130 29 80
271 718 281 740 12 28 180 476 180 481 0 2 -128 4 -285 4 l-285 0 -9 -22z"/>
<path d="M2129 4826 c-2 -2 -38 -6 -79 -10 -41 -3 -87 -8 -102 -11 -16 -3 -38
-7 -50 -9 -575 -103 -1008 -484 -1144 -1005 -13 -51 -26 -110 -29 -130 -3 -20
-8 -61 -12 -91 -14 -99 -10 -1347 5 -1420 6 -36 15 -78 18 -95 7 -38 33 -134
43 -160 5 -11 19 -47 31 -80 112 -295 365 -558 680 -708 52 -25 109 -49 125
-53 17 -4 35 -10 40 -14 10 -7 116 -38 158 -46 12 -2 45 -8 72 -14 143 -29
246 -37 438 -34 95 1 190 4 212 8 22 3 60 8 85 11 25 3 54 7 65 9 138 29 183
41 260 67 422 144 722 439 849 834 39 121 59 238 70 405 1 13 -54 15 -426 18
l-428 2 -2 -27 c-1 -31 -1 -29 -12 -92 -17 -90 -78 -214 -142 -287 -39 -44
-153 -121 -216 -146 -188 -76 -488 -79 -668 -8 -230 91 -367 267 -405 520 -19
126 -18 1180 2 1276 21 103 42 162 84 234 86 149 236 253 424 296 94 21 273
25 375 8 167 -27 286 -84 386 -184 70 -70 120 -158 149 -265 27 -98 25 -87 25
-124 l0 -28 425 0 c308 0 425 3 426 11 2 13 2 2 -6 111 -4 49 -8 92 -10 95 -2
3 -6 23 -9 45 -22 137 -116 381 -172 446 -8 8 -14 19 -14 23 0 4 -20 34 -44
65 -161 209 -389 370 -652 460 -86 29 -273 72 -374 86 -51 7 -445 17 -451 11z"/>
</g>
</svg>
