<svg width="366" height="73" xmlns="http://www.w3.org/2000/svg"><g fill-rule="nonzero" fill="none"><path d="M19.654 66.825c5.7 0 10.249-1.466 13.646-4.398 3.398-2.932 5.18-6.92 5.344-11.961H28.368c-.164 2.356-1 4.179-2.507 5.467-1.507 1.288-3.576 1.931-6.207 1.931-2.74 0-4.905-.767-6.494-2.301-1.59-1.535-2.384-3.7-2.384-6.495V37.642c0-2.795.794-4.946 2.384-6.454 1.59-1.507 3.754-2.26 6.494-2.26 2.576 0 4.631.644 6.166 1.932 1.534 1.288 2.384 3.11 2.548 5.466h10.276c-.165-5.042-1.946-9.029-5.344-11.96-3.397-2.933-7.946-4.399-13.646-4.399-3.836 0-7.193.726-10.07 2.179-2.877 1.452-5.11 3.507-6.7 6.165C1.294 30.97.5 34.107.5 37.724v11.344c0 3.617.795 6.755 2.384 9.413 1.59 2.658 3.823 4.713 6.7 6.166 2.877 1.452 6.234 2.178 10.07 2.178ZM55.195 66.003v-28.28c0-2.849.726-5.041 2.178-6.576 1.453-1.534 3.44-2.301 5.96-2.301 2.521 0 4.508.74 5.96 2.22 1.453 1.479 2.179 3.589 2.179 6.329v28.608h10.276V36.326c0-4.987-1.33-8.96-3.987-11.92-2.658-2.96-6.207-4.439-10.646-4.439-3.343 0-6.07.836-8.18 2.508-2.11 1.671-3.384 3.987-3.822 6.946h-.165l.247-8.632V5.992H44.919v60.01h10.276ZM107.095 20.05c5.809 0 10.412 1.602 13.81 4.809 3.398 3.206 5.097 7.494 5.097 12.865v11.262l-.004.476c-.097 5.203-1.795 9.36-5.093 12.472-3.398 3.206-8.001 4.809-13.81 4.809-5.81 0-10.413-1.603-13.811-4.81-3.398-3.205-5.097-7.521-5.097-12.947v-11.18l.004-.476c.097-5.202 1.795-9.36 5.093-12.471 3.398-3.207 8.001-4.81 13.81-4.81Zm0 8.96c-2.74 0-4.864.754-6.371 2.26-1.508 1.508-2.261 3.686-2.261 6.536v11.18l.004.368c.063 2.67.815 4.726 2.257 6.168 1.507 1.507 3.63 2.26 6.37 2.26s4.864-.753 6.372-2.26c1.507-1.508 2.26-3.686 2.26-6.536v-11.18l-.004-.368c-.063-2.67-.815-4.726-2.256-6.167-1.508-1.507-3.631-2.261-6.371-2.261ZM144.28 66.003v-28.28c0-2.904.74-5.15 2.219-6.74 1.48-1.59 3.535-2.384 6.165-2.384 2.631 0 4.7.795 6.207 2.384 1.507 1.59 2.26 3.836 2.26 6.74v2.55h10.77v-3.289c0-5.316-1.398-9.481-4.193-12.495-2.795-3.015-6.631-4.522-11.509-4.522-6.85 0-10.988 3.151-12.413 9.454h-.082v-8.632h-9.7v45.214h10.275ZM213.114 5.992v60.01h-10.03v-8.63h-.164l-.059.372c-.487 2.834-1.741 5.04-3.763 6.615-2.11 1.644-4.837 2.466-8.18 2.466-4.549 0-8.193-1.548-10.934-4.645-2.74-3.096-4.11-7.302-4.11-12.618v-12.25l.004-.51c.086-5.076 1.455-9.126 4.106-12.149 2.74-3.124 6.385-4.686 10.934-4.686 3.343 0 6.056.836 8.138 2.508 2.083 1.671 3.37 3.987 3.864 6.946h.247l-.33-10.77V5.993h10.277Zm-18.579 22.854c-2.63 0-4.686.767-6.165 2.301-1.48 1.535-2.22 3.727-2.22 6.577v11.344l.004.368c.062 2.672.8 4.741 2.216 6.209 1.48 1.534 3.534 2.302 6.165 2.302 2.63 0 4.672-.781 6.124-2.343 1.453-1.562 2.179-3.74 2.179-6.536V37.724l-.005-.377c-.063-2.615-.787-4.668-2.174-6.159-1.452-1.562-3.493-2.342-6.124-2.342Z" fill="#34895F"/><path d="M269.2 20.79v39.294h15.29v5.919h-37.98v-5.919h16.113V26.708h-14.057V20.79H269.2Zm-4.028-18.415c1.698 0 3.055.466 4.069 1.398 1.014.931 1.52 2.192 1.52 3.781 0 1.535-.506 2.74-1.52 3.617-1.014.877-2.37 1.315-4.07 1.315-1.698 0-3.055-.438-4.069-1.315-1.014-.877-1.52-2.082-1.52-3.617 0-1.59.506-2.85 1.52-3.781 1.014-.932 2.37-1.398 4.07-1.398ZM306.823 19.967c5.042 0 9.043 1.357 12.002 4.07 2.96 2.712 4.44 6.37 4.44 10.974v30.992h-6.413V57.7l-.055.326c-.499 2.695-1.96 4.82-4.384 6.374-2.521 1.617-5.7 2.425-9.536 2.425-4.768 0-8.522-1.22-11.262-3.658-2.74-2.439-4.11-5.741-4.11-9.906 0-4.11 1.342-7.358 4.027-9.742 2.686-2.384 6.303-3.576 10.852-3.576h14.386v-4.768l-.005-.366c-.07-2.785-.945-4.978-2.626-6.58-1.753-1.672-4.247-2.507-7.48-2.507-2.796 0-5.138.63-7.03 1.89-1.89 1.26-3 2.96-3.329 5.097h-6.576l.056-.394c.563-3.654 2.353-6.605 5.37-8.854 3.123-2.33 7.015-3.494 11.673-3.494Zm9.947 24.991h-14.304l-.364.005c-2.406.065-4.34.775-5.802 2.132-1.534 1.425-2.301 3.37-2.301 5.837 0 2.63.931 4.727 2.795 6.289 1.863 1.562 4.411 2.343 7.645 2.343 3.617 0 6.576-.904 8.878-2.713 2.302-1.809 3.453-4.165 3.453-7.07v-6.823ZM365.354 66.003v-5.919h-13.975c-1.918 0-3.425-.562-4.521-1.685-1.097-1.124-1.645-2.7-1.645-4.727V5.992h-21.949v5.919h15.455v41.76c0 3.782 1.137 6.783 3.412 9.003 2.274 2.22 5.357 3.329 9.248 3.329h13.975ZM246.96 5.992l-22.728 60.01h-6.905l22.727-60.01h6.905Z" fill="#99C4AF"/></g></svg>